<?xml version="1.0" encoding="utf-8" standalone="no"?><!DOCTYPE svg PUBLIC "-//W3C//DTD SVG 20010904//EN" "http://www.w3.org/TR/2001/REC-SVG-20010904/DTD/svg10.dtd"><svg xmlns="http://www.w3.org/2000/svg" width="224" height="465" xmlns:xlink="http://www.w3.org/1999/xlink"><source><![CDATA[Created with Raphaël 2.1.2输入a,ba=b b=a mod b判断b是否为零返回ayesno]]></source><desc style="-webkit-tap-highlight-color: rgba(0, 0, 0, 0);">Created with Raphaël 2.1.2</desc><defs style="-webkit-tap-highlight-color: rgba(0, 0, 0, 0);"><path stroke-linecap="round" d="M5,0 0,2.5 5,5z" id="raphael-marker-block-obj1" style="-webkit-tap-highlight-color: rgba(0, 0, 0, 0);"></path><marker id="raphael-marker-endblock33-obj2" markerHeight="3" markerWidth="3" orient="auto" refX="1.5" refY="1.5" style="-webkit-tap-highlight-color: rgba(0, 0, 0, 0);"><use xmlns:xlink="http://www.w3.org/1999/xlink" xlink:href="#raphael-marker-block-obj1" transform="rotate(180 1.5 1.5) scale(0.6,0.6)" stroke-width="1.6667" fill="black" stroke="none" style="-webkit-tap-highlight-color: rgba(0, 0, 0, 0);"></use></marker></defs><rect x="0" y="0" width="72" height="37" r="20" rx="20" ry="20" fill="#ffffff" stroke="#000000" style="-webkit-tap-highlight-color: rgba(0, 0, 0, 0);" stroke-width="2" class="flowchart" id="st" transform="matrix(1,0,0,1,64.75,33.875)"></rect><text x="10" y="18.5" text-anchor="start" font="10px &quot;Arial&quot;" stroke="none" fill="#000000" style="-webkit-tap-highlight-color: rgba(0, 0, 0, 0); text-anchor: start; font-style: normal; font-variant: normal; font-weight: normal; font-stretch: normal; font-size: 15px; line-height: normal; font-family: Arial;" id="stt" class="flowchartt" font-size="15px" transform="matrix(1,0,0,1,64.75,33.875)" stroke-width="1"><tspan style="-webkit-tap-highlight-color: rgba(0, 0, 0, 0);" dy="5.5">输入a,b</tspan></text><rect x="0" y="0" width="119" height="37" r="0" rx="0" ry="0" fill="#ffffff" stroke="#000000" style="-webkit-tap-highlight-color: rgba(0, 0, 0, 0);" stroke-width="2" class="flowchart" id="op" transform="matrix(1,0,0,1,41.25,154.75)"></rect><text x="10" y="18.5" text-anchor="start" font="10px &quot;Arial&quot;" stroke="none" fill="#000000" style="-webkit-tap-highlight-color: rgba(0, 0, 0, 0); text-anchor: start; font-style: normal; font-variant: normal; font-weight: normal; font-stretch: normal; font-size: 15px; line-height: normal; font-family: Arial;" id="opt" class="flowchartt" font-size="15px" transform="matrix(1,0,0,1,41.25,154.75)" stroke-width="1"><tspan style="-webkit-tap-highlight-color: rgba(0, 0, 0, 0);" dy="5.5">a=b b=a mod b</tspan></text><path fill="#ffffff" stroke="#000000" d="M48.375,24.1875L0,48.375L96.75,96.75L193.5,48.375L96.75,0L0,48.375" stroke-width="2" id="cond" class="flowchart" style="-webkit-tap-highlight-color: rgba(0, 0, 0, 0);" transform="matrix(1,0,0,1,4,245.75)"></path><text x="53.375" y="48.375" text-anchor="start" font="10px &quot;Arial&quot;" stroke="none" fill="#000000" style="-webkit-tap-highlight-color: rgba(0, 0, 0, 0); text-anchor: start; font-style: normal; font-variant: normal; font-weight: normal; font-stretch: normal; font-size: 15px; line-height: normal; font-family: Arial;" id="condt" class="flowchartt" font-size="15px" transform="matrix(1,0,0,1,4,245.75)" stroke-width="1"><tspan style="-webkit-tap-highlight-color: rgba(0, 0, 0, 0);" dy="5.5">判断b是否为零</tspan></text><rect x="0" y="0" width="60" height="37" r="20" rx="20" ry="20" fill="#ffffff" stroke="#000000" style="-webkit-tap-highlight-color: rgba(0, 0, 0, 0);" stroke-width="2" class="flowchart" id="e" transform="matrix(1,0,0,1,70.75,426.375)"></rect><text x="10" y="18.5" text-anchor="start" font="10px &quot;Arial&quot;" stroke="none" fill="#000000" style="-webkit-tap-highlight-color: rgba(0, 0, 0, 0); text-anchor: start; font-style: normal; font-variant: normal; font-weight: normal; font-stretch: normal; font-size: 15px; line-height: normal; font-family: Arial;" id="et" class="flowchartt" font-size="15px" transform="matrix(1,0,0,1,70.75,426.375)" stroke-width="1"><tspan style="-webkit-tap-highlight-color: rgba(0, 0, 0, 0);" dy="5.5">返回a</tspan><tspan dy="18" x="10" style="-webkit-tap-highlight-color: rgba(0, 0, 0, 0);"></tspan></text><path fill="none" stroke="#000000" d="M100.75,70.875C100.75,70.875,100.75,136.75079771876335,100.75,151.7401149731304" stroke-width="2" marker-end="url(#raphael-marker-endblock33-obj2)" style="-webkit-tap-highlight-color: rgba(0, 0, 0, 0);"></path><path fill="none" stroke="#000000" d="M100.75,191.75C100.75,191.75,100.75,231.40409994125366,100.75,242.75043908460066" stroke-width="2" marker-end="url(#raphael-marker-endblock33-obj2)" style="-webkit-tap-highlight-color: rgba(0, 0, 0, 0);"></path><path fill="none" stroke="#000000" d="M100.75,342.5C100.75,342.5,100.75,408.37579771876335,100.75,423.3651149731304" stroke-width="2" marker-end="url(#raphael-marker-endblock33-obj2)" style="-webkit-tap-highlight-color: rgba(0, 0, 0, 0);"></path><text x="105.75" y="352.5" text-anchor="start" font="10px &quot;Arial&quot;" stroke="none" fill="#000000" style="-webkit-tap-highlight-color: rgba(0, 0, 0, 0); text-anchor: start; font-style: normal; font-variant: normal; font-weight: normal; font-stretch: normal; font-size: 15px; line-height: normal; font-family: Arial;" font-size="15px" stroke-width="1"><tspan style="-webkit-tap-highlight-color: rgba(0, 0, 0, 0);" dy="5.5">yes</tspan></text><path fill="none" stroke="#000000" d="M197.5,294.125C197.5,294.125,222.5,294.125,222.5,294.125C222.5,294.125,222.5,129.75,222.5,129.75C222.5,129.75,100.75,129.75,100.75,129.75C100.75,129.75,100.75,145.12344455718994,100.75,151.75924777425826" stroke-width="2" marker-end="url(#raphael-marker-endblock33-obj2)" style="-webkit-tap-highlight-color: rgba(0, 0, 0, 0);"></path><text x="202.5" y="284.125" text-anchor="start" font="10px &quot;Arial&quot;" stroke="none" fill="#000000" style="-webkit-tap-highlight-color: rgba(0, 0, 0, 0); text-anchor: start; font-style: normal; font-variant: normal; font-weight: normal; font-stretch: normal; font-size: 15px; line-height: normal; font-family: Arial;" font-size="15px" stroke-width="1"><tspan style="-webkit-tap-highlight-color: rgba(0, 0, 0, 0);" dy="5.5">no</tspan></text></svg>